<svg width="338" height="335" viewBox="0 0 338 335" fill="none" xmlns="http://www.w3.org/2000/svg">
<path d="M50.3194 122.717C49.5538 119.816 50.824 116.792 54.1301 113.644L84.5459 91.3428C85.2173 90.7519 86.2298 90.2778 87.5834 89.9205C89.1305 89.5122 90.6628 89.8317 92.1803 90.8791C93.6979 91.9265 95.1335 92.2715 96.4871 91.9142C97.8407 91.5569 100.517 90.3334 104.516 88.2435C108.658 85.9093 114.198 82.9989 121.138 79.5123C128.027 75.8323 135.812 72.0193 144.492 68.0733C164.794 58.7845 186.451 51.1032 209.463 45.0292C236.729 37.8322 256.796 34.7075 269.664 35.6548C274.764 36.1702 279.27 37.5666 283.18 39.8439C287.234 41.8769 289.822 45.0205 290.944 49.2748C291.608 51.7887 290.199 53.505 286.719 54.4238C238.732 68.5379 200.003 82.07 170.532 95.0201C167.54 96.2236 166.273 97.6955 166.733 99.4359C166.886 100.016 167.039 100.596 167.192 101.176C167.488 101.512 167.092 102.754 166.004 104.903L142.491 148.653C141.494 150.363 141.098 151.606 141.302 152.379C141.456 152.959 141.725 153.198 142.112 153.096C142.692 152.943 143.898 152.418 145.73 151.521C158.095 147.43 169.596 143.98 180.232 141.173C190.867 138.366 197.112 137.338 198.965 138.09C209.158 142.225 215.187 145.082 217.051 146.658C219.108 148.183 220.29 149.526 220.596 150.687C221.26 153.2 219.541 155.309 215.44 157.012C165.715 175.515 138.823 185.302 134.762 186.374C130.65 187.253 128.014 187.845 126.853 188.151C123.759 188.968 120.917 192.304 118.325 198.159L95.3402 254.491C94.7817 256.293 94.6045 257.581 94.8086 258.354C94.9618 258.934 95.4251 259.122 96.1986 258.918C96.9721 258.714 98.0303 258.021 99.3731 256.839C116.785 249.14 133.323 243.224 148.986 239.09C164.843 234.904 176.767 232.274 184.757 231.199C195.393 228.392 208.869 233.212 225.186 245.66C226.511 246.759 227.326 247.888 227.632 249.048C227.938 250.208 226.641 251.171 223.74 251.937C175.59 264.646 139.2 275.286 114.571 283.855C113.655 284.304 112.424 284.732 110.877 285.14C102.562 287.335 96.3466 286.907 92.2317 283.856C91.3453 282.849 90.2253 282.524 88.8717 282.882C87.518 283.239 86.5364 284.222 85.9268 285.831C85.1238 287.491 84.4323 288.397 83.8522 288.55C83.272 288.703 81.9586 288.429 79.912 287.729C77.8653 287.028 75.589 285.457 73.083 283.015C70.4346 280.819 68.7021 278.173 67.8854 275.079C67.0177 271.792 66.9034 268.616 67.5424 265.551C67.9881 262.538 68.7131 258.623 69.7173 253.807C70.5282 249.042 73.0618 240.617 77.3181 228.53C81.7168 216.199 86.8139 205.339 92.6094 195.949C93.321 194.727 93.5748 193.729 93.3706 192.955C93.1154 191.989 91.9242 191.786 89.7971 192.347C87.8633 192.858 85.6542 192.717 83.1698 191.925C80.8277 190.888 79.3248 189.113 78.6613 186.599C77.9467 183.892 80.7438 180.775 87.0526 177.248L101.644 169.052C101.838 169.001 101.934 168.976 101.934 168.976C105.028 168.159 107.587 165.312 109.609 160.434C126.273 132.662 136.787 116.855 141.151 113.014C142.585 111.395 143.226 110.295 143.073 109.715C142.868 108.941 142.186 108.707 141.026 109.014C139.866 109.32 138.924 109.672 138.202 110.069C120.983 117.717 107.056 122.944 96.4206 125.752C85.7848 128.559 77.9221 130.117 72.8325 130.426C67.7428 130.736 63.8591 130.52 61.1813 129.778C55.2858 127.818 51.8894 125.922 50.9923 124.09L50.3194 122.717Z" fill="#BB2649"/>
</svg>
