<svg width="26" height="40" viewBox="0 0 26 40" fill="none" xmlns="http://www.w3.org/2000/svg">
<g clip-path="url(#clip0_90_346)">
<path d="M6.45611 39.6217C10.0198 39.6217 12.9121 36.7295 12.9121 33.1658V26.7098H6.45611C2.8924 26.7098 0.00012207 29.6021 0.00012207 33.1658C0.00012207 36.7295 2.8924 39.6217 6.45611 39.6217Z" fill="#D64E7A"/>
<path d="M0.00012207 20.2538C0.00012207 16.6901 2.8924 13.7979 6.45611 13.7979H12.9121V26.7098H6.45611C2.8924 26.7098 0.00012207 23.8175 0.00012207 20.2538Z" fill="#A43D5E"/>
<path d="M0.00012207 7.34185C0.00012207 3.77814 2.8924 0.885864 6.45611 0.885864H12.9121V13.7978H6.45611C2.8924 13.7978 0.00012207 10.9055 0.00012207 7.34185Z" fill="#D64E7A"/>
<path d="M12.9121 0.885864H19.3681C22.9318 0.885864 25.8241 3.77814 25.8241 7.34185C25.8241 10.9055 22.9318 13.7978 19.3681 13.7978H12.9121V0.885864Z" fill="#9F395A"/>
<path d="M25.8241 20.2538C25.8241 23.8175 22.9318 26.7098 19.3681 26.7098C15.8044 26.7098 12.9121 23.8175 12.9121 20.2538C12.9121 16.6901 15.8044 13.7979 19.3681 13.7979C22.9318 13.7979 25.8241 16.6901 25.8241 20.2538Z" fill="#D64E7A"/>
</g>
<defs>
<clipPath id="clip0_90_346">
<rect width="25.8239" height="38.7359" fill="white" transform="translate(0.00012207 0.885864)"/>
</clipPath>
</defs>
</svg>
