<svg width="54" height="32" viewBox="0 0 54 32" fill="none" xmlns="http://www.w3.org/2000/svg">
<path d="M26.569 0.059845C19.4838 0.059845 15.0552 3.59143 13.2842 10.6546C15.9412 7.12252 19.0411 5.79837 22.5836 6.68164C24.6045 7.18515 26.0493 8.64708 27.6485 10.2653C30.2533 12.9006 33.2682 15.9517 39.8533 15.9517C46.9385 15.9517 51.3666 12.4202 53.1376 5.35698C50.481 8.88907 47.3812 10.2132 43.8386 9.32995C41.8173 8.82644 40.3729 7.36451 38.7738 5.74626C36.1685 3.11097 33.1541 0.059845 26.569 0.059845ZM13.2842 15.9517C6.19952 15.9517 1.77092 19.4833 -0.00012207 26.5465C2.65694 23.0144 5.75626 21.6903 9.29884 22.5735C11.3202 23.0771 12.765 24.539 14.3637 26.1567C16.969 28.793 19.9839 31.8431 26.569 31.8431C33.6536 31.8431 38.0817 28.3121 39.8533 21.2489C37.1962 24.781 34.0964 26.1051 30.5543 25.2219C28.533 24.7183 27.0881 23.2564 25.489 21.6382C22.8842 19.0029 19.8693 15.9517 13.2842 15.9517V15.9517Z" fill="url(#paint0_linear_90_345)"/>
<defs>
<linearGradient id="paint0_linear_90_345" x1="-1.47629" y1="10.2305" x2="44.3452" y2="36.733" gradientUnits="userSpaceOnUse">
<stop stop-color="#D64E7A"/>
<stop offset="1" stop-color="#842745"/>
</linearGradient>
</defs>
</svg>
