<svg width="43" height="44" viewBox="0 0 43 44" fill="none" xmlns="http://www.w3.org/2000/svg">
<path d="M42.0481 19.9552L23.3363 0.942516C23.0801 0.68204 22.7758 0.475415 22.441 0.334442C22.1061 0.193469 21.7472 0.120911 21.3847 0.120911C21.0223 0.120911 20.6634 0.193469 20.3285 0.334442C19.9936 0.475415 19.6894 0.68204 19.4331 0.942516L15.5477 4.89113L20.4766 9.89926C21.056 9.69904 21.679 9.6677 22.275 9.8088C22.871 9.94989 23.4162 10.2578 23.8488 10.6976C24.2838 11.1401 24.5875 11.6981 24.7252 12.3077C24.8629 12.9173 24.8291 13.554 24.6276 14.145L29.3771 18.9721C30.5264 18.5699 31.8527 18.8302 32.7702 19.7643C33.0753 20.0741 33.3173 20.4419 33.4824 20.8468C33.6475 21.2516 33.7325 21.6856 33.7325 22.1238C33.7325 22.5621 33.6475 22.996 33.4824 23.4009C33.3173 23.8058 33.0753 24.1736 32.7702 24.4834C32.2335 25.0293 31.5272 25.3693 30.7716 25.4456C30.0159 25.5218 29.2576 25.3297 28.6256 24.9017C27.9937 24.4738 27.5273 23.8365 27.3057 23.0984C27.0842 22.3604 27.1212 21.5671 27.4105 20.8536L22.9807 16.3523L22.9803 28.1982C23.3014 28.3596 23.5947 28.5727 23.8488 28.8293C24.1538 29.1392 24.3958 29.5071 24.5609 29.9121C24.726 30.317 24.811 30.751 24.811 31.1893C24.811 31.6276 24.726 32.0616 24.5609 32.4665C24.3958 32.8715 24.1538 33.2394 23.8488 33.5493C22.5656 34.8532 20.4859 34.8532 19.2047 33.5493C18.8219 33.1606 18.5396 32.6819 18.3828 32.1556C18.226 31.6293 18.1996 31.0719 18.306 30.5327C18.4124 29.9936 18.6482 29.4896 18.9925 29.0654C19.3368 28.6412 19.7789 28.31 20.2795 28.1013V16.1451C19.8768 15.978 19.5112 15.7303 19.2047 15.4167C18.2328 14.4304 17.9991 12.9813 18.4971 11.7685L13.6385 6.8307L0.808655 19.8669C0.552281 20.1274 0.348913 20.4366 0.210163 20.777C0.0714136 21.1174 0 21.4822 0 21.8506C0 22.219 0.0714136 22.5838 0.210163 22.9242C0.348913 23.2645 0.552281 23.5738 0.808655 23.8343L19.5204 42.8473C20.0381 43.3732 20.7401 43.6686 21.472 43.6686C22.204 43.6686 22.906 43.3732 23.4236 42.8473L42.0481 23.923C42.5657 23.3967 42.8565 22.6831 42.8565 21.9391C42.8565 21.195 42.5657 20.4814 42.0481 19.9552" fill="url(#paint0_linear_90_356)"/>
<defs>
<linearGradient id="paint0_linear_90_356" x1="21.4282" y1="0.120911" x2="21.4282" y2="43.6686" gradientUnits="userSpaceOnUse">
<stop stop-color="#D64E7A"/>
<stop offset="1" stop-color="#BB2649"/>
</linearGradient>
</defs>
</svg>
