<svg width="58" height="46" viewBox="0 0 58 46" fill="none" xmlns="http://www.w3.org/2000/svg">
<g clip-path="url(#clip0_90_343)">
<path d="M11.8621 0.435699C8.6034 0.435699 6.19204 3.26795 6.30002 6.33944C6.40375 9.29021 6.26901 13.1122 5.30013 16.2289C4.32836 19.3547 2.68465 21.3347 0 21.589V24.4592C2.68465 24.7135 4.32836 26.6935 5.30013 29.8195C6.26901 32.9362 6.40375 36.7578 6.30002 39.7088C6.19204 42.7798 8.6034 45.6125 11.8625 45.6125H45.2528C48.5117 45.6125 50.9224 42.7803 50.8144 39.7088C50.7109 36.758 50.8454 32.9362 51.8143 29.8195C52.7867 26.6937 54.426 24.7133 57.1106 24.4592V21.589C54.426 21.3347 52.7867 19.3547 51.8145 16.2289C50.8454 13.1127 50.7109 9.29043 50.8144 6.33944C50.9224 3.26839 48.5117 0.435699 45.2528 0.435699H11.8616H11.8621V0.435699ZM38.7192 28.2449C38.7192 32.4743 35.5424 35.0392 30.2704 35.0392H21.2956C21.0389 35.0391 20.7927 34.9378 20.6112 34.7576C20.4298 34.5773 20.3278 34.3328 20.3278 34.078V11.9703C20.3278 11.844 20.3528 11.719 20.4014 11.6024C20.4501 11.4857 20.5214 11.3797 20.6112 11.2904C20.7011 11.2012 20.8079 11.1303 20.9253 11.082C21.0428 11.0337 21.1687 11.0088 21.2958 11.0088H30.2191C34.6151 11.0088 37.5 13.3736 37.5 17.0041C37.5 19.5523 35.5592 21.8336 33.0867 22.233V22.3662C36.4529 22.7328 38.7192 25.0476 38.7192 28.2449V28.2449ZM29.2915 14.056H24.1745V21.2335H28.4846C31.8162 21.2335 33.6536 19.9012 33.6536 17.5198C33.6536 15.2883 32.0736 14.056 29.2917 14.056H29.2915ZM24.1745 24.0815V31.9912H29.48C32.9486 31.9912 34.7864 30.609 34.7864 28.0114C34.7864 25.4133 32.8975 24.081 29.2569 24.081H24.1745V24.0815Z" fill="url(#paint0_linear_90_343)"/>
</g>
<defs>
<linearGradient id="paint0_linear_90_343" x1="28.5553" y1="0.435699" x2="28.5553" y2="45.6125" gradientUnits="userSpaceOnUse">
<stop stop-color="#D64E7A"/>
<stop offset="1" stop-color="#BB2649"/>
</linearGradient>
<clipPath id="clip0_90_343">
<rect width="57.1106" height="45.1919" fill="white" transform="translate(0 0.435699)"/>
</clipPath>
</defs>
</svg>
