<svg width="37" height="37" viewBox="0 0 37 37" fill="none" xmlns="http://www.w3.org/2000/svg">
<path d="M35.3676 4.15639L27.9404 0.580647C27.521 0.378414 27.049 0.311677 26.59 0.389687C26.1309 0.467697 25.7075 0.68659 25.3784 1.01602L1.06566 23.1815C0.77067 23.4492 0.594093 23.8231 0.574768 24.2209C0.555443 24.6188 0.694953 25.008 0.962608 25.303C0.99481 25.3378 1.02701 25.3713 1.06179 25.4022L3.04674 27.2055C3.30612 27.4416 3.63998 27.5793 3.99035 27.5949C4.34073 27.6104 4.68547 27.5027 4.96471 27.2905L34.2495 5.08382C34.4707 4.91597 34.7344 4.81319 35.0108 4.78706C35.2872 4.76093 35.5655 4.81248 35.8142 4.93591C36.0629 5.05934 36.2723 5.24974 36.4187 5.48569C36.565 5.72164 36.6427 5.99377 36.6428 6.27144V6.18514C36.6428 5.76123 36.5231 5.34594 36.2975 4.98704C36.0719 4.62814 35.7496 4.34022 35.3676 4.15639V4.15639Z" fill="#AB2C55"/>
<path d="M35.3676 32.4172L27.9404 35.9942C27.5209 36.1958 27.049 36.2623 26.5901 36.1843C26.1312 36.1063 25.7078 35.8877 25.3784 35.5588L1.06566 13.392C0.77067 13.1244 0.594093 12.7505 0.574768 12.3526C0.555443 11.9548 0.694953 11.5655 0.962608 11.2705C0.99481 11.2358 1.02701 11.2023 1.06179 11.1713L3.04674 9.36802C3.30638 9.13096 3.64101 8.99259 3.99225 8.97705C4.34348 8.96152 4.68902 9.0698 4.96858 9.283L34.2495 31.4897C34.4707 31.6576 34.7344 31.7603 35.0108 31.7865C35.2872 31.8126 35.5655 31.7611 35.8142 31.6376C36.0629 31.5142 36.2723 31.3238 36.4187 31.0879C36.565 30.8519 36.6427 30.5798 36.6428 30.3021V30.3948C36.6414 30.8176 36.5211 31.2315 36.2956 31.5891C36.0701 31.9467 35.7485 32.2337 35.3676 32.4172V32.4172Z" fill="#8C1A3F"/>
<path d="M27.9405 35.9942C27.5209 36.1958 27.0491 36.2623 26.5902 36.1843C26.1312 36.1063 25.7078 35.8877 25.3784 35.5588C25.5634 35.7414 25.7982 35.8653 26.0533 35.915C26.3083 35.9647 26.5724 35.9381 26.8125 35.8384C27.0525 35.7386 27.2577 35.5703 27.4024 35.3545C27.5472 35.1386 27.625 34.8848 27.6262 34.6249V1.9486C27.6264 1.68749 27.5491 1.43219 27.4041 1.21504C27.2591 0.997886 27.0529 0.828659 26.8116 0.72879C26.5704 0.628921 26.3049 0.602905 26.0489 0.654037C25.7928 0.70517 25.5577 0.831149 25.3733 1.01602C25.7024 0.686706 26.1258 0.467799 26.5847 0.389572C27.0437 0.311345 27.5157 0.377663 27.9353 0.579355L35.3612 4.14995C35.7443 4.33286 36.068 4.62039 36.2948 4.97935C36.5216 5.33832 36.6422 5.7541 36.6428 6.1787V30.3948C36.6429 30.8191 36.5231 31.2348 36.2973 31.5939C36.0715 31.9531 35.7487 32.2411 35.3663 32.4249L27.9405 35.9942Z" fill="#D64E7A"/>
</svg>
