<svg width="28" height="27" viewBox="0 0 28 27" fill="none" xmlns="http://www.w3.org/2000/svg">
<path d="M14 0.666748C12.249 0.666748 10.5152 1.01162 8.89751 1.68169C7.27984 2.35175 5.80998 3.33388 4.57187 4.57199C2.07138 7.07248 0.666626 10.4639 0.666626 14.0001C0.666626 19.8934 4.49329 24.8934 9.78663 26.6667C10.4533 26.7734 10.6666 26.3601 10.6666 26.0001V23.7467C6.97329 24.5467 6.18663 21.9601 6.18663 21.9601C5.57329 20.4134 4.70663 20.0001 4.70663 20.0001C3.49329 19.1734 4.79996 19.2001 4.79996 19.2001C6.13329 19.2934 6.83996 20.5734 6.83996 20.5734C7.99996 22.6001 9.95996 22.0001 10.72 21.6801C10.84 20.8134 11.1866 20.2267 11.56 19.8934C8.59996 19.5601 5.49329 18.4134 5.49329 13.3334C5.49329 11.8534 5.99996 10.6667 6.86663 9.72008C6.73329 9.38675 6.26663 8.00008 6.99996 6.20008C6.99996 6.20008 8.11996 5.84008 10.6666 7.56008C11.72 7.26675 12.8666 7.12008 14 7.12008C15.1333 7.12008 16.28 7.26675 17.3333 7.56008C19.88 5.84008 21 6.20008 21 6.20008C21.7333 8.00008 21.2666 9.38675 21.1333 9.72008C22 10.6667 22.5066 11.8534 22.5066 13.3334C22.5066 18.4267 19.3866 19.5467 16.4133 19.8801C16.8933 20.2934 17.3333 21.1067 17.3333 22.3467V26.0001C17.3333 26.3601 17.5466 26.7867 18.2266 26.6667C23.52 24.8801 27.3333 19.8934 27.3333 14.0001C27.3333 12.2491 26.9884 10.5153 26.3184 8.89764C25.6483 7.27996 24.6662 5.81011 23.428 4.57199C22.1899 3.33388 20.7201 2.35175 19.1024 1.68169C17.4847 1.01162 15.7509 0.666748 14 0.666748V0.666748Z" fill="#D64E7A"/>
</svg>
