<svg width="43" height="61" viewBox="0 0 43 61" fill="none" xmlns="http://www.w3.org/2000/svg">
<g clip-path="url(#clip0_90_364)">
<path d="M21.4021 60.4492L3.96118 55.6313L0.0744629 12.2524H42.7819L38.8912 55.6246L21.4021 60.4492V60.4492Z" fill="#D64E7A"/>
<path d="M35.5603 52.8628L38.885 15.7992H21.4282V56.7614L35.5603 52.8628V52.8628Z" fill="#8E002E"/>
<path d="M8.98466 31.8878L9.46378 37.2081H21.4283V31.8878H8.98466ZM8.02173 21.1196L8.50771 26.4398H21.4283V21.1196H8.02173V21.1196ZM21.4283 45.7051L21.4048 45.7113L15.4505 44.1114L15.0698 39.8683H9.70267L10.4517 48.2219L21.4037 51.247L21.4283 51.2404V45.7051Z" fill="#01001B"/>
<path d="M33.8377 31.8878L34.8028 21.1196H21.4098V26.4398H28.9435L28.457 31.8878H21.4098V37.2081H27.9935L27.3727 44.108L21.4097 45.7096V51.2445L32.3704 48.2219L32.4507 47.323L33.7073 33.3165L33.8377 31.8878V31.8878Z" fill="#01001B"/>
</g>
<defs>
<clipPath id="clip0_90_364">
<rect width="42.8565" height="60.1373" fill="white" transform="translate(0 0.463867)"/>
</clipPath>
</defs>
</svg>
