<svg width="53" height="52" viewBox="0 0 53 52" fill="none" xmlns="http://www.w3.org/2000/svg">
<path d="M26.3778 27.3673L23.0373 37.021H23.0271L20.4402 44.395C20.6236 44.4454 20.7967 44.4858 20.98 44.5362H21.0106C22.6551 44.9706 24.3498 45.191 26.0519 45.1919C26.9007 45.1981 27.7487 45.1374 28.5878 45.0103C29.7107 44.8709 30.8185 44.6312 31.8978 44.2941C32.1626 44.2134 32.4274 44.1226 32.6922 44.0318C32.407 43.4266 31.7959 42.0849 31.7654 42.0244L26.3778 27.3673ZM8.22906 18.2079C7.21061 20.4877 6.51807 23.292 6.51807 25.8239C6.51807 26.4594 6.54862 27.0949 6.60973 27.7204C7.31246 34.9027 11.9973 40.935 18.4339 43.6485C18.6987 43.7595 18.9737 43.8704 19.2487 43.9713L9.7771 18.218C8.96234 18.1877 8.80957 18.2381 8.22906 18.2079Z" fill="url(#paint0_linear_90_339)"/>
<path d="M43.8136 17.6934C43.3754 16.7591 42.8611 15.8617 42.2758 15.0101C42.1128 14.768 41.9295 14.5259 41.7564 14.2838C39.5496 11.3501 36.5529 9.09168 33.1097 7.76732C30.8641 6.89727 28.4735 6.45245 26.0621 6.45595C23.1409 6.45602 20.2571 7.10598 17.6236 8.35784C14.99 9.6097 12.674 11.4315 10.8465 13.6887C10.1845 14.5015 9.58851 15.365 9.06421 16.2711C10.5104 16.2812 12.3029 16.2812 12.5066 16.2812C14.3499 16.2812 17.1914 16.0592 17.1914 16.0592C18.1488 15.9987 18.2506 17.3807 17.3034 17.4916C17.3034 17.4916 16.3461 17.6026 15.2869 17.6531L21.693 36.5166L25.5427 25.0875L22.8132 17.6631C21.8559 17.6127 20.9699 17.5017 20.9699 17.5017C20.0125 17.4513 20.1347 16.0088 21.0717 16.0693C21.0717 16.0693 23.9743 16.2912 25.7056 16.2912C27.549 16.2912 30.3905 16.0693 30.3905 16.0693C31.3376 16.0088 31.4599 17.3908 30.5025 17.5017C30.5025 17.5017 29.5554 17.6127 28.4962 17.6631L34.8411 36.3855L36.603 30.5751C37.4891 28.3155 37.9372 26.4493 37.9372 24.9564C37.9372 22.8077 37.153 21.3148 36.4808 20.1547C35.5948 18.7122 34.7596 17.5017 34.7596 16.0794C34.7596 14.4755 35.9818 12.9825 37.7131 12.9825H37.9372C40.6055 12.9119 41.4814 15.5347 41.5934 17.3202V17.3807C41.6341 18.107 41.6036 18.6416 41.6036 19.2771C41.6036 21.0324 41.2675 23.0196 40.2694 25.5112L36.2975 36.8899L34.0263 43.5173C34.2097 43.4366 34.3828 43.3559 34.5661 43.2651C40.3407 40.5012 44.5469 34.9934 45.433 28.4668C45.5643 27.5987 45.629 26.7219 45.6265 25.8441C45.6303 23.0287 45.0115 20.2466 43.8136 17.6934V17.6934Z" fill="url(#paint1_linear_90_339)"/>
<path d="M26.0722 4.84196C30.9596 4.84446 35.6958 6.52023 39.4786 9.58541C43.2614 12.6506 45.8581 16.9167 46.8289 21.661C47.7997 26.4054 47.0848 31.3363 44.8055 35.6184C42.5261 39.9005 38.8224 43.2705 34.3217 45.1576C29.1448 47.3246 23.3107 47.366 18.1031 45.2725C12.8954 43.1791 8.74057 39.1224 6.55269 33.9948C4.36481 28.8672 4.32305 23.0887 6.43661 17.9306C8.55017 12.7725 12.6459 8.6573 17.8228 6.49026C20.4326 5.39647 23.2385 4.83584 26.0722 4.84196M26.0722 3.22797C13.473 3.22797 3.25903 13.3447 3.25903 25.8239C3.25903 38.3031 13.473 48.4199 26.0722 48.4199C38.6715 48.4199 48.8855 38.3031 48.8855 25.8239C48.8855 13.3447 38.6715 3.22797 26.0722 3.22797Z" fill="url(#paint2_linear_90_339)"/>
<defs>
<linearGradient id="paint0_linear_90_339" x1="19.6051" y1="18.2079" x2="19.6051" y2="45.1923" gradientUnits="userSpaceOnUse">
<stop offset="0.385417" stop-color="#D64E7A"/>
<stop offset="1" stop-color="#782639"/>
</linearGradient>
<linearGradient id="paint1_linear_90_339" x1="27.3454" y1="6.45593" x2="27.3454" y2="43.5173" gradientUnits="userSpaceOnUse">
<stop offset="0.385417" stop-color="#D64E7A"/>
<stop offset="1" stop-color="#782639"/>
</linearGradient>
<linearGradient id="paint2_linear_90_339" x1="26.0722" y1="3.22797" x2="26.0722" y2="48.4199" gradientUnits="userSpaceOnUse">
<stop offset="0.385417" stop-color="#D64E7A"/>
<stop offset="1" stop-color="#782639"/>
</linearGradient>
</defs>
</svg>
