<svg width="53" height="52" viewBox="0 0 53 52" fill="none" xmlns="http://www.w3.org/2000/svg">
<path d="M26.5351 0.424072C23.0841 0.424072 19.6669 1.1038 16.4785 2.42445C13.2902 3.74511 10.3932 5.68082 7.95297 8.12106C3.02467 13.0494 0.255981 19.7336 0.255981 26.7032C0.255981 38.3186 7.7981 48.1733 18.2309 51.6684C19.5449 51.8787 19.9654 51.064 19.9654 50.3545V45.9133C12.686 47.4901 11.1356 42.3919 11.1356 42.3919C9.92671 39.3435 8.21857 38.5289 8.21857 38.5289C5.82717 36.8996 8.40252 36.9521 8.40252 36.9521C11.0304 37.1361 12.4232 39.6589 12.4232 39.6589C14.7095 43.6533 18.5726 42.4707 20.0705 41.84C20.307 40.1319 20.9902 38.9756 21.7261 38.3186C15.8921 37.6617 9.76904 35.4016 9.76904 25.3893C9.76904 22.4723 10.7676 20.1334 12.4758 18.2676C12.213 17.6106 11.2932 14.8776 12.7386 11.3299C12.7386 11.3299 14.946 10.6204 19.9654 14.0104C22.0414 13.4323 24.3014 13.1432 26.5351 13.1432C28.7689 13.1432 31.0289 13.4323 33.1049 14.0104C38.1243 10.6204 40.3317 11.3299 40.3317 11.3299C41.7771 14.8776 40.8573 17.6106 40.5945 18.2676C42.3027 20.1334 43.3013 22.4723 43.3013 25.3893C43.3013 35.4279 37.1519 37.6354 31.2917 38.2923C32.2377 39.107 33.1049 40.71 33.1049 43.154V50.3545C33.1049 51.064 33.5254 51.905 34.8656 51.6684C45.2985 48.147 52.8143 38.3186 52.8143 26.7032C52.8143 23.2522 52.1346 19.835 50.8139 16.6466C49.4933 13.4583 47.5576 10.5613 45.1173 8.12106C42.6771 5.68082 39.7801 3.74511 36.5918 2.42445C33.4034 1.1038 29.9862 0.424072 26.5351 0.424072V0.424072Z" fill="url(#paint0_linear_90_353)"/>
<defs>
<linearGradient id="paint0_linear_90_353" x1="26.5351" y1="0.424072" x2="26.5351" y2="51.7092" gradientUnits="userSpaceOnUse">
<stop stop-color="#D64E7A"/>
<stop offset="1" stop-color="#BB2649"/>
</linearGradient>
</defs>
</svg>
