<svg width="36" height="36" viewBox="0 0 36 36" fill="none" xmlns="http://www.w3.org/2000/svg">
<g clip-path="url(#clip0_90_336)">
<path d="M0 0H35.2529V35.9441H0V0Z" fill="url(#paint0_linear_90_336)"/>
<path d="M9.2693 30.0375L11.967 28.3728C12.4875 29.3137 12.9609 30.1098 14.0966 30.1098C15.1852 30.1098 15.8716 29.6757 15.8716 27.9868V16.5019H19.1845V28.0346C19.1845 31.5331 17.1731 33.1256 14.2386 33.1256C11.5884 33.1256 10.0501 31.7262 9.26917 30.0372M20.9839 29.6755L23.6813 28.0832C24.3914 29.2655 25.3143 30.1341 26.947 30.1341C28.3198 30.1341 29.195 29.4343 29.195 28.4691C29.195 27.3111 28.2958 26.9008 26.7813 26.2254L25.9533 25.8632C23.5631 24.826 21.9777 23.523 21.9777 20.7725C21.9777 18.239 23.8707 16.3087 26.8288 16.3087C28.9349 16.3087 30.4494 17.0567 31.5378 19.0111L28.9583 20.7002C28.3903 19.6627 27.7753 19.2526 26.8287 19.2526C25.8584 19.2526 25.2431 19.8799 25.2431 20.7002C25.2431 21.7135 25.8584 22.1239 27.2782 22.7512L28.1063 23.113C30.9224 24.3437 32.5078 25.5982 32.5078 28.421C32.5078 31.4613 30.1652 33.126 27.0179 33.126C23.9417 33.126 21.9539 31.6301 20.9837 29.6757" fill="#01001B"/>
</g>
<defs>
<linearGradient id="paint0_linear_90_336" x1="17.6264" y1="0" x2="17.6264" y2="35.9441" gradientUnits="userSpaceOnUse">
<stop stop-color="#D64E7A"/>
<stop offset="1" stop-color="#BB2649"/>
</linearGradient>
<clipPath id="clip0_90_336">
<rect width="35.2529" height="35.9441" fill="white"/>
</clipPath>
</defs>
</svg>
