<svg width="39" height="44" viewBox="0 0 39 44" fill="none" xmlns="http://www.w3.org/2000/svg">
<path d="M38.1063 0L34.6348 39.0403L19.0299 43.383L3.46797 39.0463L0 0H38.1063Z" fill="#D64E7A"/>
<path d="M19.0531 40.0635L31.6627 36.5543L34.6292 3.1925H19.0531V40.0635Z" fill="#8E002E"/>
<path d="M12.3045 12.7704H19.0531V7.98157H7.09094L7.20506 9.26632L8.37763 22.4632H19.0531V17.6743H12.7405L12.3045 12.7704V12.7704ZM13.3797 24.8577H8.59079L9.25908 32.3769L19.0312 35.1L19.0531 35.094V30.1115L19.0322 30.1171L13.7193 28.677L13.3797 24.8577Z" fill="#01001B"/>
<path d="M19.0366 22.4632H24.911L24.3571 28.674L19.0365 30.1156V35.0977L28.8163 32.3769L28.888 31.5678L30.0092 18.9603L30.1256 17.6743H19.0366V22.4632ZM19.0366 12.7587V12.7704H30.5597L30.6553 11.6941L30.8728 9.26632L30.9867 7.98157H19.0366V12.7589V12.7587Z" fill="#01001B"/>
</svg>
