<svg width="39" height="55" viewBox="0 0 39 55" fill="none" xmlns="http://www.w3.org/2000/svg">
<g clip-path="url(#clip0_90_331)">
<path d="M38.1729 10.6112L34.7013 49.6514L19.0964 53.9942L3.5345 49.6574L0.0665283 10.6112H38.1729Z" fill="#D64E7A"/>
<path d="M19.1196 50.6746L31.7292 47.1654L34.6957 13.8037H19.1196V50.6746Z" fill="#8E002E"/>
<path d="M12.371 23.3816H19.1196V18.5927H7.15747L7.27159 19.8775L8.44416 33.0743H19.1196V28.2854H12.807L12.371 23.3816V23.3816ZM13.4462 35.4688H8.65732L9.32561 42.9881L19.0977 45.7111L19.1196 45.7051V40.7227L19.0987 40.7282L13.7859 39.2881L13.4462 35.4688Z" fill="#01001B"/>
<path d="M19.1032 33.0743H24.9775L24.4237 39.2851L19.103 40.7267V45.7089L28.8829 42.9881L28.9546 42.179L30.0758 29.5714L30.1921 28.2854H19.1032V33.0743ZM19.1032 23.3699V23.3816H30.6262L30.7218 22.3053L30.9393 19.8775L31.0533 18.5927H19.1032V23.37V23.3699Z" fill="#01001B"/>
</g>
<defs>
<clipPath id="clip0_90_331">
<rect width="38.2393" height="54.1309" fill="white"/>
</clipPath>
</defs>
</svg>
