<svg width="45" height="46" viewBox="0 0 45 46" fill="none" xmlns="http://www.w3.org/2000/svg">
<path d="M4.44665 5.36779H40.4834V40.4217H4.44665V5.36779ZM2.80811 42.0603H42.122V3.72925H2.80811V42.0603ZM29.3127 19.4548C28.0181 19.4548 27.5759 20.1105 27.5759 20.6511C27.5759 21.2408 27.8707 21.6508 29.6075 22.5508C32.1798 23.7962 32.9773 24.991 32.9773 26.7447C32.9773 29.3661 30.9793 30.7744 28.2765 30.7744C27.1165 30.8174 25.9636 30.5764 24.918 30.0724C24.8028 30.0232 24.7874 29.9418 24.7874 29.8098V27.399C24.7874 27.2347 24.8688 27.1856 24.9839 27.2684C25.9659 27.8999 27.109 28.2353 28.2765 28.2344C29.571 28.2344 30.1116 27.6939 30.1116 26.9567C30.1116 26.367 29.7353 25.8433 28.0799 24.991C25.7534 23.8776 24.7874 22.7445 24.7874 20.8631C24.7874 18.75 26.4414 16.9977 29.3085 16.9977C30.3065 16.9548 31.303 17.1109 32.2402 17.4568C32.2941 17.4918 32.3378 17.5406 32.3667 17.5981C32.3955 17.6556 32.4086 17.7198 32.4044 17.784V20.0305C32.4044 20.161 32.323 20.2439 32.1587 20.1947C31.2926 19.6962 30.3077 19.4414 29.3085 19.4576L29.3127 19.4548ZM15.2243 21.4036C15.6006 21.4359 15.8954 21.4359 16.5511 21.4359C18.4677 21.4359 20.2691 20.7648 20.2691 18.1603C20.2691 16.0794 18.9745 15.032 16.7968 15.032C16.1411 15.032 15.5191 15.0643 15.2243 15.0811V21.4036ZM12.308 12.6984C12.308 12.5833 12.5369 12.5019 12.6689 12.5019C14.0769 12.4443 15.4859 12.4172 16.8951 12.4204C21.4331 12.4204 23.2022 14.9098 23.2022 18.0886C23.2022 22.2489 20.1877 24.0349 16.4865 24.0349C15.8645 24.0349 15.6511 24.0026 15.2088 24.0026V30.2928C15.2088 30.4234 15.1597 30.4894 15.0123 30.4894H12.506C12.3754 30.4894 12.3094 30.4402 12.3094 30.2928V12.7055L12.308 12.6984Z" fill="#D64E7A"/>
</svg>
