<svg width="43" height="49" viewBox="0 0 43 49" fill="none" xmlns="http://www.w3.org/2000/svg">
<path d="M21.4021 48.4492L3.96118 43.6313L0.0744629 0.252441H42.7819L38.8912 43.6246L21.4021 48.4492V48.4492Z" fill="#D64E7A"/>
<path d="M35.5603 40.8628L38.885 3.79919H21.4282V44.7614L35.5603 40.8628V40.8628Z" fill="#8E002E"/>
<path d="M8.98466 19.8878L9.46378 25.2081H21.4283V19.8878H8.98466ZM8.02173 9.1196L8.50771 14.4398H21.4283V9.1196H8.02173V9.1196ZM21.4283 33.7051L21.4048 33.7113L15.4505 32.1114L15.0698 27.8683H9.70267L10.4517 36.2219L21.4037 39.247L21.4283 39.2404V33.7051Z" fill="#01001B"/>
<path d="M33.8377 19.8878L34.8028 9.1196H21.4098V14.4398H28.9435L28.457 19.8878H21.4098V25.2081H27.9935L27.3727 32.108L21.4097 33.7096V39.2445L32.3704 36.2219L32.4507 35.323L33.7073 21.3165L33.8377 19.8878V19.8878Z" fill="#01001B"/>
</svg>
