<svg width="42" height="42" viewBox="0 0 42 42" fill="none" xmlns="http://www.w3.org/2000/svg">
<path d="M37.3676 7.15639L29.9404 3.58065C29.521 3.37841 29.049 3.31168 28.59 3.38969C28.1309 3.4677 27.7075 3.68659 27.3784 4.01602L3.06566 26.1815C2.77067 26.4492 2.59409 26.8231 2.57477 27.2209C2.55544 27.6188 2.69495 28.008 2.96261 28.303C2.99481 28.3378 3.02701 28.3713 3.06179 28.4022L5.04674 30.2055C5.30612 30.4416 5.63998 30.5793 5.99035 30.5949C6.34073 30.6104 6.68547 30.5027 6.96471 30.2905L36.2495 8.08382C36.4707 7.91597 36.7344 7.81319 37.0108 7.78706C37.2872 7.76093 37.5655 7.81248 37.8142 7.93591C38.0629 8.05934 38.2723 8.24974 38.4187 8.48569C38.565 8.72164 38.6427 8.99377 38.6428 9.27144V9.18514C38.6428 8.76123 38.5231 8.34594 38.2975 7.98704C38.0719 7.62814 37.7496 7.34022 37.3676 7.15639V7.15639Z" fill="#AB2C55"/>
<path d="M37.3676 35.4172L29.9404 38.9942C29.5209 39.1958 29.049 39.2623 28.5901 39.1843C28.1312 39.1063 27.7078 38.8877 27.3784 38.5588L3.06566 16.392C2.77067 16.1244 2.59409 15.7505 2.57477 15.3526C2.55544 14.9548 2.69495 14.5655 2.96261 14.2705C2.99481 14.2358 3.02701 14.2023 3.06179 14.1713L5.04674 12.368C5.30638 12.131 5.64101 11.9926 5.99225 11.9771C6.34348 11.9615 6.68902 12.0698 6.96858 12.283L36.2495 34.4897C36.4707 34.6576 36.7344 34.7603 37.0108 34.7865C37.2872 34.8126 37.5655 34.7611 37.8142 34.6376C38.0629 34.5142 38.2723 34.3238 38.4187 34.0879C38.565 33.8519 38.6427 33.5798 38.6428 33.3021V33.3948C38.6414 33.8176 38.5211 34.2315 38.2956 34.5891C38.0701 34.9467 37.7485 35.2337 37.3676 35.4172V35.4172Z" fill="#8C1A3F"/>
<path d="M29.9405 38.9942C29.5209 39.1958 29.0491 39.2623 28.5902 39.1843C28.1312 39.1063 27.7078 38.8877 27.3784 38.5588C27.5634 38.7414 27.7982 38.8653 28.0533 38.915C28.3083 38.9647 28.5724 38.9381 28.8125 38.8384C29.0525 38.7386 29.2577 38.5703 29.4024 38.3545C29.5472 38.1386 29.625 37.8848 29.6262 37.6249V4.9486C29.6264 4.68749 29.5491 4.43219 29.4041 4.21504C29.2591 3.99789 29.0529 3.82866 28.8116 3.72879C28.5704 3.62892 28.3049 3.6029 28.0489 3.65404C27.7928 3.70517 27.5577 3.83115 27.3733 4.01602C27.7024 3.68671 28.1258 3.4678 28.5847 3.38957C29.0437 3.31134 29.5157 3.37766 29.9353 3.57935L37.3612 7.14995C37.7443 7.33286 38.068 7.62039 38.2948 7.97935C38.5216 8.33832 38.6422 8.7541 38.6428 9.1787V33.3948C38.6429 33.8191 38.5231 34.2348 38.2973 34.5939C38.0715 34.9531 37.7487 35.2411 37.3663 35.4249L29.9405 38.9942Z" fill="#D64E7A"/>
</svg>
