<svg width="46" height="46" viewBox="0 0 46 46" fill="none" xmlns="http://www.w3.org/2000/svg">
<path d="M23.3778 24.3673L20.0373 34.021H20.0271L17.4402 41.395C17.6236 41.4454 17.7967 41.4858 17.98 41.5362H18.0106C19.6551 41.9706 21.3498 42.191 23.0519 42.1919C23.9007 42.1981 24.7487 42.1374 25.5878 42.0103C26.7107 41.8709 27.8185 41.6312 28.8978 41.2941C29.1626 41.2134 29.4274 41.1226 29.6922 41.0318C29.407 40.4266 28.7959 39.0849 28.7654 39.0244L23.3778 24.3673ZM5.22906 15.2079C4.21061 17.4877 3.51807 20.292 3.51807 22.8239C3.51807 23.4594 3.54862 24.0949 3.60973 24.7204C4.31246 31.9027 8.99731 37.935 15.4339 40.6485C15.6987 40.7595 15.9737 40.8704 16.2487 40.9713L6.7771 15.218C5.96234 15.1877 5.80957 15.2381 5.22906 15.2079Z" fill="url(#paint0_linear_112_571)"/>
<path d="M40.8136 14.6934C40.3754 13.7591 39.8611 12.8617 39.2758 12.0101C39.1128 11.768 38.9295 11.5259 38.7564 11.2838C36.5496 8.35014 33.5529 6.09168 30.1097 4.76732C27.8641 3.89727 25.4735 3.45245 23.0621 3.45595C20.1409 3.45602 17.2571 4.10598 14.6236 5.35784C11.99 6.6097 9.67398 8.43148 7.84649 10.6887C7.18447 11.5015 6.58851 12.365 6.06421 13.2711C7.5104 13.2812 9.30287 13.2812 9.50656 13.2812C11.3499 13.2812 14.1914 13.0592 14.1914 13.0592C15.1488 12.9987 15.2506 14.3807 14.3034 14.4916C14.3034 14.4916 13.3461 14.6026 12.2869 14.6531L18.693 33.5166L22.5427 22.0875L19.8132 14.6631C18.8559 14.6127 17.9699 14.5017 17.9699 14.5017C17.0125 14.4513 17.1347 13.0088 18.0717 13.0693C18.0717 13.0693 20.9743 13.2912 22.7056 13.2912C24.549 13.2912 27.3905 13.0693 27.3905 13.0693C28.3376 13.0088 28.4599 14.3908 27.5025 14.5017C27.5025 14.5017 26.5554 14.6127 25.4962 14.6631L31.8411 33.3855L33.603 27.5751C34.4891 25.3155 34.9372 23.4493 34.9372 21.9564C34.9372 19.8077 34.153 18.3148 33.4808 17.1547C32.5948 15.7122 31.7596 14.5017 31.7596 13.0794C31.7596 11.4755 32.9818 9.98255 34.7131 9.98255H34.9372C37.6055 9.91194 38.4814 12.5347 38.5934 14.3202V14.3807C38.6341 15.107 38.6036 15.6416 38.6036 16.2771C38.6036 18.0324 38.2675 20.0196 37.2694 22.5112L33.2975 33.8899L31.0263 40.5173C31.2097 40.4366 31.3828 40.3559 31.5661 40.2651C37.3407 37.5012 41.5469 31.9934 42.433 25.4668C42.5643 24.5987 42.629 23.7219 42.6265 22.8441C42.6303 20.0287 42.0115 17.2466 40.8136 14.6934V14.6934Z" fill="url(#paint1_linear_112_571)"/>
<path d="M23.0722 1.84196C27.9596 1.84446 32.6958 3.52023 36.4786 6.58541C40.2614 9.65058 42.8581 13.9167 43.8289 18.661C44.7997 23.4054 44.0848 28.3363 41.8055 32.6184C39.5261 36.9005 35.8224 40.2705 31.3217 42.1576C26.1448 44.3246 20.3107 44.366 15.1031 42.2725C9.89536 40.1791 5.74057 36.1224 3.55269 30.9948C1.36481 25.8672 1.32305 20.0887 3.43661 14.9306C5.55017 9.77252 9.64592 5.6573 14.8228 3.49026C17.4326 2.39647 20.2385 1.83584 23.0722 1.84196M23.0722 0.227966C10.473 0.227966 0.259033 10.3447 0.259033 22.8239C0.259033 35.3031 10.473 45.4199 23.0722 45.4199C35.6715 45.4199 45.8855 35.3031 45.8855 22.8239C45.8855 10.3447 35.6715 0.227966 23.0722 0.227966Z" fill="url(#paint2_linear_112_571)"/>
<defs>
<linearGradient id="paint0_linear_112_571" x1="16.6051" y1="15.2079" x2="16.6051" y2="42.1923" gradientUnits="userSpaceOnUse">
<stop offset="0.385417" stop-color="#D64E7A"/>
<stop offset="1" stop-color="#782639"/>
</linearGradient>
<linearGradient id="paint1_linear_112_571" x1="24.3454" y1="3.45593" x2="24.3454" y2="40.5173" gradientUnits="userSpaceOnUse">
<stop offset="0.385417" stop-color="#D64E7A"/>
<stop offset="1" stop-color="#782639"/>
</linearGradient>
<linearGradient id="paint2_linear_112_571" x1="23.0722" y1="0.227966" x2="23.0722" y2="45.4199" gradientUnits="userSpaceOnUse">
<stop offset="0.385417" stop-color="#D64E7A"/>
<stop offset="1" stop-color="#782639"/>
</linearGradient>
</defs>
</svg>
