<svg width="64" height="64" viewBox="0 0 64 64" fill="none" xmlns="http://www.w3.org/2000/svg">
<path d="M31.5351 5.42407C28.0841 5.42407 24.6669 6.1038 21.4785 7.42445C18.2902 8.74511 15.3932 10.6808 12.953 13.1211C8.02467 18.0494 5.25598 24.7336 5.25598 31.7032C5.25598 43.3186 12.7981 53.1733 23.2309 56.6684C24.5449 56.8787 24.9654 56.064 24.9654 55.3545V50.9133C17.686 52.4901 16.1356 47.3919 16.1356 47.3919C14.9267 44.3435 13.2186 43.5289 13.2186 43.5289C10.8272 41.8996 13.4025 41.9521 13.4025 41.9521C16.0304 42.1361 17.4232 44.6589 17.4232 44.6589C19.7095 48.6533 23.5726 47.4707 25.0705 46.84C25.307 45.1319 25.9902 43.9756 26.7261 43.3186C20.8921 42.6617 14.769 40.4016 14.769 30.3893C14.769 27.4723 15.7676 25.1334 17.4758 23.2676C17.213 22.6106 16.2932 19.8776 17.7386 16.3299C17.7386 16.3299 19.946 15.6204 24.9654 19.0104C27.0414 18.4323 29.3014 18.1432 31.5351 18.1432C33.7689 18.1432 36.0289 18.4323 38.1049 19.0104C43.1243 15.6204 45.3317 16.3299 45.3317 16.3299C46.7771 19.8776 45.8573 22.6106 45.5945 23.2676C47.3027 25.1334 48.3013 27.4723 48.3013 30.3893C48.3013 40.4279 42.1519 42.6354 36.2917 43.2923C37.2377 44.107 38.1049 45.71 38.1049 48.154V55.3545C38.1049 56.064 38.5254 56.905 39.8656 56.6684C50.2985 53.147 57.8143 43.3186 57.8143 31.7032C57.8143 28.2522 57.1346 24.835 55.8139 21.6466C54.4933 18.4583 52.5576 15.5613 50.1173 13.1211C47.6771 10.6808 44.7801 8.74511 41.5918 7.42445C38.4034 6.1038 34.9862 5.42407 31.5351 5.42407V5.42407Z" fill="url(#paint0_linear_90_352)"/>
<defs>
<linearGradient id="paint0_linear_90_352" x1="31.5351" y1="5.42407" x2="31.5351" y2="56.7092" gradientUnits="userSpaceOnUse">
<stop stop-color="#D64E7A"/>
<stop offset="1" stop-color="#BB2649"/>
</linearGradient>
</defs>
</svg>
