<svg width="52" height="52" viewBox="0 0 52 52" fill="none" xmlns="http://www.w3.org/2000/svg">
<g clip-path="url(#clip0_90_354)">
<path d="M37.431 17.9229L37.412 17.9148C37.4005 17.9114 37.3899 17.9054 37.381 17.8973C37.3655 17.8807 37.354 17.8607 37.3475 17.839C37.341 17.8173 37.3395 17.7943 37.3432 17.772L38.3857 11.4062L43.2739 16.2903L38.1902 18.4509C38.1761 18.4565 38.161 18.4593 38.1458 18.4589H38.1254C38.1155 18.4524 38.1064 18.4447 38.0984 18.4359C37.9092 18.2255 37.6829 18.0516 37.431 17.9229V17.9229ZM44.5213 17.5349L49.7478 22.7558C50.8332 23.8414 51.3769 24.3829 51.575 25.0107C51.6047 25.1035 51.6289 25.1965 51.6479 25.2922L39.157 20.008C39.1503 20.0052 39.1435 20.0025 39.1368 19.9999C39.0867 19.9797 39.0288 19.9567 39.0288 19.9057C39.0288 19.8544 39.0882 19.8302 39.138 19.81L39.1541 19.8032L44.5213 17.5349ZM51.4348 26.9679C51.1651 27.4743 50.6391 27.9997 49.7492 28.89L43.8563 34.775L36.2348 33.1897L36.1945 33.1816C36.1269 33.1707 36.0555 33.1586 36.0555 33.0981C36.0265 32.7839 35.9331 32.4791 35.7811 32.2027C35.6291 31.9262 35.4219 31.684 35.1722 31.4911C35.1411 31.4601 35.1494 31.4116 35.1587 31.3671C35.1587 31.3604 35.1587 31.3537 35.1615 31.3483L36.5949 22.5579L36.6002 22.5282C36.6083 22.4608 36.6204 22.3827 36.6811 22.3827C36.9882 22.3446 37.2847 22.2458 37.5533 22.092C37.8218 21.9382 38.0571 21.7326 38.2454 21.487C38.2576 21.4735 38.2656 21.4587 38.2818 21.4507C38.3249 21.4305 38.3762 21.4507 38.4208 21.4694L51.4336 26.9679H51.4348V26.9679ZM42.5014 36.1287L32.8111 45.8083L34.4695 35.625L34.4723 35.6115C34.4736 35.5982 34.4763 35.5852 34.4804 35.5725C34.4939 35.5402 34.5288 35.5267 34.5627 35.5132L34.5789 35.5064C34.942 35.3516 35.2632 35.1129 35.5162 34.8101C35.5485 34.7724 35.5876 34.7359 35.6374 34.7292C35.6503 34.7272 35.6637 34.7272 35.6766 34.7292L42.4997 36.1302L42.5012 36.1287H42.5014ZM30.7599 47.8571L29.6677 48.9481L17.5922 31.5153C17.5878 31.5089 17.5833 31.5026 17.5786 31.4964C17.5599 31.4708 17.5395 31.4453 17.5437 31.4157C17.5449 31.3941 17.5585 31.3753 17.5734 31.3592L17.5867 31.3416C17.623 31.2876 17.6543 31.2337 17.688 31.1758L17.7148 31.1288L17.7188 31.1248C17.7378 31.0925 17.7552 31.0614 17.7876 31.0439C17.8159 31.0303 17.8552 31.0358 17.8861 31.0424L31.2643 33.7983C31.3018 33.8044 31.3369 33.8195 31.3668 33.8427C31.3844 33.8605 31.3884 33.8792 31.3924 33.9008C31.4859 34.2536 31.6596 34.5801 31.9001 34.8546C32.1405 35.1292 32.4412 35.3444 32.7786 35.4836C32.8164 35.5023 32.8002 35.5441 32.7827 35.5885C32.7739 35.608 32.7672 35.6283 32.7625 35.6492C32.594 36.6729 31.1485 45.4796 30.7599 47.8571V47.8571ZM28.4784 50.1348C27.6734 50.9309 27.1987 51.3524 26.662 51.5222C26.1329 51.6893 25.5651 51.6893 25.0359 51.5222C24.4075 51.3227 23.8639 50.7814 22.7783 49.6956L10.6516 37.5822L13.819 32.675C13.8325 32.6504 13.8509 32.6288 13.8731 32.6116C13.9068 32.5874 13.9554 32.5983 13.9958 32.6116C14.7228 32.8308 15.5033 32.7913 16.2045 32.4999C16.2408 32.4866 16.2774 32.4771 16.3058 32.5027C16.3199 32.5156 16.3326 32.5299 16.3435 32.5457L28.4784 50.1362V50.1348V50.1348ZM9.48243 36.4142L6.7005 33.6355L12.1941 31.2944C12.2082 31.2883 12.2234 31.2851 12.2387 31.2849C12.2845 31.2849 12.3116 31.3307 12.3358 31.3725C12.3911 31.4572 12.4496 31.54 12.5113 31.6205L12.5286 31.6418C12.5448 31.6648 12.5341 31.6876 12.518 31.7092L9.48364 36.4142H9.48243ZM5.46943 32.4057L1.94991 28.89C1.35112 28.292 0.916951 27.8582 0.614932 27.4852L11.3163 29.7024L11.3567 29.7091C11.4229 29.7198 11.4959 29.7319 11.4959 29.7938C11.4959 29.8612 11.4162 29.8923 11.3486 29.9177L11.3177 29.9312L5.46943 32.4057V32.4057ZM0 25.6773C0.012242 25.4509 0.0530497 25.2269 0.121453 25.0107C0.320983 24.3829 0.863084 23.8414 1.94991 22.7558L6.45376 18.2568C8.52751 21.2632 10.6069 24.2657 12.6919 27.2643C12.7282 27.3127 12.7685 27.3666 12.727 27.4069C12.5301 27.6238 12.3331 27.8609 12.1943 28.1183C12.1792 28.1512 12.156 28.18 12.1268 28.2016C12.1092 28.2125 12.0904 28.2085 12.0703 28.2044H12.0674L0 25.6761V25.6775V25.6773ZM7.65942 17.0525L13.7153 11.0033C14.2843 11.2524 16.3556 12.1266 18.2083 12.9078C19.6109 13.5007 20.8891 14.0396 21.291 14.2145C21.3314 14.2307 21.3679 14.2468 21.3854 14.2871C21.3961 14.3114 21.3909 14.3424 21.3854 14.368C21.2896 14.8048 21.3039 15.2585 21.427 15.6883C21.5501 16.1182 21.7782 16.5106 22.0908 16.8304C22.1311 16.8708 22.0908 16.9287 22.0557 16.9785L22.0367 17.0067L15.8878 26.5206C15.8716 26.5477 15.8567 26.5705 15.8297 26.588C15.7974 26.6082 15.7516 26.5987 15.7137 26.5894C15.4745 26.5268 15.2287 26.4934 14.9815 26.4898C14.7604 26.4898 14.5203 26.5301 14.2776 26.5745H14.2762C14.2494 26.5785 14.225 26.584 14.2036 26.5678C14.1797 26.5484 14.1592 26.5253 14.1428 26.4992L7.65942 17.0525ZM14.9385 9.78148L22.7785 1.95017C23.8639 0.865763 24.4075 0.323057 25.0357 0.124939C25.5649 -0.0422161 26.1328 -0.0422161 26.662 0.124939C27.2905 0.323057 27.8338 0.865763 28.9194 1.95017L30.6185 3.64748L25.0426 12.2735C25.0288 12.2986 25.0099 12.3205 24.9873 12.338C24.9536 12.361 24.9064 12.3516 24.8658 12.338C24.4262 12.2048 23.9608 12.1805 23.5097 12.2674C23.0586 12.3542 22.6355 12.5496 22.2768 12.8366C22.2405 12.8743 22.1864 12.8527 22.1406 12.8325C21.4123 12.516 15.7488 10.1251 14.9383 9.78168L14.9385 9.78148ZM31.8024 4.83014L36.951 9.97273L35.7103 17.6481V17.6683C35.7092 17.6858 35.7056 17.703 35.6996 17.7195C35.6861 17.7463 35.659 17.7518 35.632 17.7599C35.3668 17.8401 35.1171 17.9645 34.8932 18.1276C34.8835 18.1345 34.8745 18.1421 34.8661 18.1504C34.8512 18.1666 34.8365 18.1815 34.8123 18.1841C34.7925 18.1847 34.7728 18.1815 34.7542 18.1747L26.9087 14.845L26.894 14.8381C26.844 14.818 26.7847 14.7937 26.7847 14.7425C26.7385 14.3057 26.5957 13.8847 26.3666 13.51C26.3289 13.4481 26.2872 13.3835 26.3194 13.3202L31.8024 4.83014V4.83014ZM26.5002 16.4221L33.8548 19.5336C33.8951 19.5524 33.9397 19.57 33.9573 19.6117C33.9643 19.6368 33.9643 19.6633 33.9573 19.6884C33.9357 19.7963 33.9169 19.9188 33.9169 20.0429V20.2488C33.9169 20.3001 33.8643 20.3215 33.8156 20.3416L33.8009 20.3471C32.6358 20.8442 17.4439 27.3151 17.4209 27.3151C17.3981 27.3151 17.3737 27.3151 17.3509 27.2923C17.3105 27.252 17.3509 27.1955 17.3872 27.144L17.4061 27.1172L23.4499 17.7691L23.4606 17.753C23.4957 17.6963 23.5363 17.633 23.6011 17.633L23.6616 17.6424C23.7992 17.6612 23.9206 17.6788 24.0433 17.6788C24.9602 17.6788 25.8098 17.2329 26.3223 16.4705C26.3344 16.4503 26.3499 16.4321 26.3681 16.4166C26.4044 16.3898 26.4584 16.4033 26.5002 16.4221V16.4221ZM18.0776 28.7941L34.637 21.74C34.637 21.74 34.6612 21.74 34.6842 21.763C34.7744 21.8532 34.8512 21.9137 34.9255 21.9704L34.9618 21.9932C34.9957 22.0121 35.0294 22.0335 35.032 22.0686C35.032 22.0821 35.032 22.0902 35.0294 22.1023L33.6107 30.8066L33.6052 30.8417C33.5959 30.9089 33.5864 30.9858 33.5231 30.9858C33.145 31.0112 32.7788 31.1283 32.4562 31.3271C32.1336 31.5259 31.8643 31.8004 31.6716 32.1266L31.6648 32.1373C31.646 32.1684 31.6285 32.1979 31.5974 32.214C31.5692 32.2277 31.5328 32.2223 31.503 32.2156L18.2975 29.4946C18.284 29.492 18.0925 28.7956 18.0776 28.7941V28.7941Z" fill="url(#paint0_radial_90_354)"/>
</g>
<defs>
<radialGradient id="paint0_radial_90_354" cx="0" cy="0" r="1" gradientUnits="userSpaceOnUse" gradientTransform="translate(25.8239 -25.8244) scale(51.6479 51.648)">
<stop stop-color="#EF789E"/>
<stop offset="1" stop-color="#A22A51"/>
</radialGradient>
<clipPath id="clip0_90_354">
<rect width="51.6479" height="51.6479" fill="white"/>
</clipPath>
</defs>
</svg>
