<svg width="31" height="25" viewBox="0 0 31 25" fill="none" xmlns="http://www.w3.org/2000/svg">
<path d="M27.2999 1.52073e-07C28.0652 -0.000242028 28.8023 0.288782 29.3634 0.809134C29.9245 1.32949 30.2683 2.04271 30.3256 2.80582L30.3332 3.03332V21.2333C30.3335 21.9985 30.0444 22.7356 29.5241 23.2968C29.0037 23.8579 28.2905 24.2016 27.5274 24.259L27.2999 24.2666H3.03332C2.26805 24.2668 1.53097 23.9778 0.969832 23.4575C0.408696 22.9371 0.064979 22.2239 0.00758363 21.4608L1.52073e-07 21.2333V3.03332C-0.000242028 2.26805 0.288782 1.53097 0.809134 0.969832C1.32949 0.408696 2.04271 0.064979 2.80582 0.00758363L3.03332 1.52073e-07H27.2999ZM27.2999 5.17788L16.7743 15.7035C16.3477 16.1295 15.7695 16.3688 15.1666 16.3688C14.5637 16.3688 13.9855 16.1295 13.559 15.7035L3.03332 5.17788V21.2333H27.2999V5.17788ZM25.1553 3.03332H5.17788L15.1666 13.0221L25.1553 3.03332Z" fill="#D64E7A"/>
</svg>
