<svg width="39" height="23" viewBox="0 0 39 23" fill="none" xmlns="http://www.w3.org/2000/svg">
<g clip-path="url(#clip0_90_256)">
<path d="M34.2875 8.50521L20.6375 16.5792C20.475 16.675 20.299 16.7427 20.1094 16.7823C19.9198 16.8226 19.7167 16.8427 19.5 16.8427C19.2834 16.8427 19.0802 16.8226 18.8907 16.7823C18.7011 16.7427 18.525 16.675 18.3625 16.5792L4.6719 8.50521C4.29273 8.2816 4.10315 8.00209 4.10315 7.66667C4.10315 7.33126 4.30627 7.04376 4.71252 6.80417C5.11877 6.56459 5.59273 6.4448 6.1344 6.4448C6.67607 6.4448 7.15002 6.56459 7.55627 6.80417L19.5 13.8479L31.4438 6.80417C31.8229 6.58056 32.2899 6.46876 32.8445 6.46876C33.4003 6.46876 33.8813 6.58855 34.2875 6.82813C34.6938 7.06771 34.8969 7.34723 34.8969 7.66667C34.8969 7.98612 34.6938 8.26563 34.2875 8.50521Z" fill="#F1F1F1"/>
</g>
<defs>
<clipPath id="clip0_90_256">
<rect width="23" height="39" fill="white" transform="translate(0 23) rotate(-90)"/>
</clipPath>
</defs>
</svg>
