<svg width="231" height="57" viewBox="0 0 231 57" fill="none" xmlns="http://www.w3.org/2000/svg">
<path d="M9.59098 40.3538V29.365L11.5528 34.4119L0 15.2979H9.04603L16.8569 28.3627H11.5891L19.4726 15.2979H27.7557L16.2756 34.4119L18.1647 29.365V40.3538H9.59098Z" fill="white"/>
<path d="M36.8673 40.7117C35.293 40.7117 33.8641 40.4015 32.5804 39.7811C31.321 39.1368 30.328 38.1465 29.6014 36.8102C28.8748 35.45 28.5115 33.708 28.5115 31.5842V20.7744H36.722V30.1882C36.722 31.5723 36.9521 32.5387 37.4122 33.0876C37.8724 33.6364 38.5021 33.9108 39.3014 33.9108C39.7858 33.9108 40.2338 33.7915 40.6456 33.5529C41.0815 33.2904 41.4327 32.8728 41.6991 32.3001C41.9655 31.7035 42.0987 30.928 42.0987 29.9735V20.7744H50.3092V40.3538H42.4984V34.6983L44.0605 36.2374C43.3582 37.7647 42.353 38.8982 41.0452 39.6379C39.7615 40.3538 38.3689 40.7117 36.8673 40.7117Z" fill="white"/>
<path d="M63.5056 40.7117C61.9313 40.7117 60.5024 40.4015 59.2187 39.7811C57.9593 39.1368 56.9663 38.1465 56.2397 36.8102C55.5131 35.45 55.1498 33.708 55.1498 31.5842V20.7744H63.3603V30.1882C63.3603 31.5723 63.5904 32.5387 64.0505 33.0876C64.5107 33.6364 65.1404 33.9108 65.9397 33.9108C66.424 33.9108 66.8721 33.7915 67.2838 33.5529C67.7198 33.2904 68.071 32.8728 68.3374 32.3001C68.6038 31.7035 68.737 30.928 68.737 29.9735V20.7744H76.9475V40.3538H69.1367V34.6983L70.6988 36.2374C69.9964 37.7647 68.9913 38.8982 67.6835 39.6379C66.3998 40.3538 65.0072 40.7117 63.5056 40.7117Z" fill="white"/>
<path d="M90.1439 40.7117C88.5696 40.7117 87.1406 40.4015 85.857 39.7811C84.5976 39.1368 83.6046 38.1465 82.878 36.8102C82.1514 35.45 81.7881 33.708 81.7881 31.5842V20.7744H89.9986V30.1882C89.9986 31.5723 90.2286 32.5387 90.6888 33.0876C91.149 33.6364 91.7787 33.9108 92.5779 33.9108C93.0623 33.9108 93.5104 33.7915 93.9221 33.5529C94.3581 33.2904 94.7093 32.8728 94.9757 32.3001C95.2421 31.7035 95.3753 30.928 95.3753 29.9735V20.7744H103.586V40.3538H95.7749V34.6983L97.3371 36.2374C96.6347 37.7647 95.6296 38.8982 94.3218 39.6379C93.0381 40.3538 91.6455 40.7117 90.1439 40.7117Z" fill="white"/>
<path d="M121.759 40.7117C120.04 40.7117 118.611 40.3538 117.472 39.6379C116.358 38.8982 115.535 37.7885 115.002 36.309C114.469 34.8057 114.203 32.8967 114.203 30.582C114.203 28.2196 114.445 26.2986 114.929 24.8191C115.438 23.3157 116.249 22.2061 117.363 21.4902C118.478 20.7744 119.943 20.4164 121.759 20.4164C123.503 20.4164 125.102 20.834 126.555 21.6692C128.008 22.4806 129.17 23.6498 130.042 25.177C130.914 26.6804 131.35 28.482 131.35 30.582C131.35 32.6819 130.914 34.4955 130.042 36.0227C129.17 37.526 128.008 38.6834 126.555 39.4947C125.102 40.3061 123.503 40.7117 121.759 40.7117ZM108.499 47.2979V20.7744H116.31V23.4231L116.346 30.582L116.709 37.7408V47.2979H108.499ZM119.797 34.4119C120.403 34.4119 120.948 34.2688 121.432 33.9824C121.917 33.6961 122.304 33.2665 122.595 32.6938C122.886 32.1211 123.031 31.4172 123.031 30.582C123.031 29.7229 122.886 29.007 122.595 28.4343C122.304 27.8616 121.917 27.4321 121.432 27.1457C120.948 26.8594 120.403 26.7162 119.797 26.7162C119.192 26.7162 118.647 26.8594 118.163 27.1457C117.678 27.4321 117.291 27.8616 117 28.4343C116.71 29.007 116.564 29.7229 116.564 30.582C116.564 31.4172 116.71 32.1211 117 32.6938C117.291 33.2665 117.678 33.6961 118.163 33.9824C118.647 34.2688 119.192 34.4119 119.797 34.4119Z" fill="white"/>
<path d="M135.826 30.7609L134.191 15.2979H144L142.365 30.7609H135.826ZM139.096 40.7117C137.691 40.7117 136.54 40.2941 135.644 39.4589C134.748 38.5999 134.3 37.5857 134.3 36.4164C134.3 35.2233 134.748 34.221 135.644 33.4097C136.54 32.5984 137.691 32.1927 139.096 32.1927C140.524 32.1927 141.675 32.5984 142.547 33.4097C143.443 34.221 143.891 35.2233 143.891 36.4164C143.891 37.5857 143.443 38.5999 142.547 39.4589C141.675 40.2941 140.524 40.7117 139.096 40.7117Z" fill="white"/>
<path d="M159.001 48.2977C159.001 46.0886 160.746 44.2977 162.898 44.2977H179.103C181.256 44.2977 183.001 46.0886 183.001 48.2977V48.2977H159.001V48.2977Z" fill="#F5F5F5"/>
<path d="M160.001 48.2977C160.001 47.7454 160.753 47.2977 161.681 47.2977H179.321C180.248 47.2977 181.001 47.7454 181.001 48.2977V48.2977H160.001V48.2977Z" fill="#D9D9D9"/>
<path d="M160.001 44.2977C160.001 43.1932 160.885 42.2977 161.976 42.2977H179.025C180.116 42.2977 181.001 43.1932 181.001 44.2977V44.2977H160.001V44.2977Z" fill="#F5F5F5"/>
<path d="M166.103 40.5397L153.124 40.0021L152.274 38.0097L166.103 40.5397Z" fill="#F5F5F5"/>
<path d="M162.159 40.3815L153.16 40.0087L152.57 38.6272L162.159 40.3815Z" fill="#D9D9D9"/>
<path d="M174.692 40.9487L187.67 38.4293L186.927 39.8479L174.692 40.9487Z" fill="#F5F5F5"/>
<path d="M178.703 40.5546L187.42 38.8625L186.921 39.8153L178.703 40.5546Z" fill="#D9D9D9"/>
<path d="M165.889 37.7576L156.134 34.2567L156.134 32.522L165.889 37.7576Z" fill="#F5F5F5"/>
<path d="M198.354 31.2678C197.107 30.1115 196.94 28.198 197.967 26.8426V26.8426C198.999 25.4821 200.896 25.1296 202.347 26.0288L219.62 36.7319C222.263 38.3692 222.923 41.9249 221.045 44.4021V44.4021C219.161 46.8878 215.543 47.2044 213.256 45.0837L198.354 31.2678Z" fill="#F5F5F5"/>
<path d="M191.57 28.2948C190.15 27.2179 189.871 25.1934 190.948 23.7729L192.988 21.082C194.065 19.6615 196.089 19.3829 197.51 20.4597V20.4597C198.93 21.5365 199.209 23.5611 198.132 24.9816L196.092 27.6724C195.015 29.093 192.991 29.3716 191.57 28.2948V28.2948Z" fill="#F5F5F5"/>
<path d="M198.887 33.8417C198.166 33.295 198.024 32.2672 198.571 31.546L202.531 26.3226C203.077 25.6014 204.105 25.4599 204.826 26.0066V26.0066C205.548 26.5534 205.689 27.5812 205.142 28.3024L201.183 33.5258C200.636 34.2469 199.608 34.3884 198.887 33.8417V33.8417Z" fill="#F5F5F5"/>
<path d="M180.411 23.4564C177.002 20.8719 176.333 16.0131 178.918 12.6038L179.038 12.4455C181.622 9.03621 186.481 8.36751 189.89 10.9519V10.9519C193.3 13.5363 193.968 18.3952 191.384 21.8045L191.264 21.9628C188.68 25.3721 183.821 26.0408 180.411 23.4564V23.4564Z" fill="#F5F5F5"/>
<path d="M175.86 18.2299C175.295 17.8021 175.185 16.9979 175.613 16.4336V16.4336C176.04 15.8693 176.845 15.7586 177.409 16.1864L188.222 24.3835C188.787 24.8113 188.897 25.6155 188.47 26.1798V26.1798C188.042 26.7441 187.238 26.8548 186.673 26.427L175.86 18.2299Z" fill="#F5F5F5"/>
<path d="M174.639 21.848C174.246 21.5498 174.169 20.9892 174.467 20.5958V20.5958C174.765 20.2024 175.326 20.1253 175.719 20.4235L184.583 27.1428C184.976 27.441 185.053 28.0016 184.755 28.395V28.395C184.457 28.7884 183.896 28.8655 183.503 28.5673L174.639 21.848Z" fill="#F5F5F5"/>
<path d="M185.74 7.20669C185.346 6.90849 185.269 6.34785 185.567 5.95447V5.95447C185.866 5.56109 186.426 5.48393 186.82 5.78214L195.684 12.5014C196.077 12.7996 196.154 13.3603 195.856 13.7536V13.7536C195.558 14.147 194.997 14.2242 194.604 13.926L185.74 7.20669Z" fill="#F5F5F5"/>
<path d="M181.968 10.2585C181.38 9.81288 181.265 8.97515 181.71 8.38734V8.38734C182.156 7.79953 182.994 7.68424 183.581 8.12982L194.31 16.2625C194.898 16.7081 195.013 17.5458 194.567 18.1336V18.1336C194.122 18.7214 193.284 18.8367 192.696 18.3911L181.968 10.2585Z" fill="#F5F5F5"/>
<path d="M185.069 3.95776V3.95776C186.726 1.77232 189.841 1.34367 192.026 3.00034L196.933 6.71995C199.118 8.37662 199.547 11.4913 197.89 13.6767V13.6767L185.069 3.95776Z" fill="#F5F5F5"/>
<path d="M173.308 27.6923C171.122 26.0356 170.694 22.921 172.35 20.7355V20.7355L185.171 30.4545V30.4545C183.515 32.6399 180.4 33.0686 178.215 31.4119L173.308 27.6923Z" fill="#F5F5F5"/>
<path d="M173.308 27.6923C171.122 26.0356 170.694 22.921 172.35 20.7355Lnan nanL172.35 20.7355L185.171 30.4545Lnan nanL185.171 30.4545C183.515 32.6399 180.4 33.0686 178.215 31.4119L173.308 27.6923Z" fill="#F5F5F5"/>
</svg>
